<svg xmlns="http://www.w3.org/2000/svg" viewBox="0 0 384 384" role="img" aria-labelledby="t d"><title id="t">Kolavatar c26656ce0c78ee0c</title><desc id="d">11x11 sikku kolam, symmetry m, palette banana-leaf. Kolavatar is built on the South Indian sikku kolam tradition.
Cultural and ethnographic context: Sahapedia (sahapedia.org/kolam-floor-art-of-tamil-nadu).
Algorithmic foundation: Siromoney, Siromoney, and Krithivasan, &#34;Array Grammars and Kolam,&#34;
Computer Graphics and Image Processing 3 (1974): 63-82.
Symmetry classification: Venkatraman Gopalan, &#34;Symmetry Classification and Enumeration of
Square-Tile Sikku Kolams,&#34; Journal of Mathematics and the Arts (2024); arXiv:2304.14134.
Kolavatar is a respectful, non-commercial homage; no part of this package, the
kolavatar-ts SDK, or any derived work may strip or substitute this attribution.</desc><rect width="100%" height="100%" fill="#fffde7"/><path d="M32 16A16 16 0 0 1 16 32A16 16 0 0 1 16 64A16 16 0 0 1 16 96A16 16 0 0 1 16 128A16 16 0 0 1 32 144A16 16 0 0 1 64 144A16 16 0 0 1 96 144A16 16 0 0 1 128 144A16 16 0 0 1 160 144A16 16 0 0 1 192 144A16 16 0 0 1 208 128A16 16 0 0 0 224 112A16 16 0 0 1 256 112A16 16 0 0 1 272 96A16 16 0 0 1 256 80A16 16 0 0 0 224 80A16 16 0 0 0 192 80A16 16 0 0 0 160 80A16 16 0 0 0 128 80A16 16 0 0 0 96 80A16 16 0 0 0 80 64A16 16 0 0 0 80 32A16 16 0 0 1 64 16A16 16 0 0 0 32 16" stroke="#1b5e20" stroke-width="4" stroke-linecap="round" stroke-linejoin="round" fill="none"/><path d="M32 208A16 16 0 0 1 16 224A16 16 0 0 1 16 256A16 16 0 0 1 16 288A16 16 0 0 1 16 320A16 16 0 0 1 32 336A16 16 0 0 1 64 336A16 16 0 0 1 80 320A16 16 0 0 0 80 288A16 16 0 0 0 96 272A16 16 0 0 1 128 272A16 16 0 0 1 160 272A16 16 0 0 1 192 272A16 16 0 0 1 224 272A16 16 0 0 1 256 272A16 16 0 0 1 272 256A16 16 0 0 1 256 240A16 16 0 0 0 224 240A16 16 0 0 0 208 224A16 16 0 0 1 192 208A16 16 0 0 0 160 208A16 16 0 0 0 128 208A16 16 0 0 0 96 208A16 16 0 0 0 64 208A16 16 0 0 0 32 208" stroke="#1b5e20" stroke-width="4" stroke-linecap="round" stroke-linejoin="round" fill="none"/><circle cx="16" cy="16" r="2" fill="#1b5e20"/><circle cx="48" cy="16" r="2" fill="#1b5e20"/><circle cx="80" cy="16" r="2" fill="#1b5e20"/><circle cx="112" cy="16" r="2" fill="#1b5e20"/><circle cx="144" cy="16" r="2" fill="#1b5e20"/><circle cx="176" cy="16" r="2" fill="#1b5e20"/><circle cx="208" cy="16" r="2" fill="#1b5e20"/><circle cx="240" cy="16" r="2" fill="#1b5e20"/><circle cx="272" cy="16" r="2" fill="#1b5e20"/><circle cx="304" cy="16" r="2" fill="#1b5e20"/><circle cx="336" cy="16" r="2" fill="#1b5e20"/><circle cx="16" cy="48" r="2" fill="#1b5e20"/><circle cx="48" cy="48" r="2" fill="#1b5e20"/><circle cx="80" cy="48" r="2" fill="#1b5e20"/><circle cx="112" cy="48" r="2" fill="#1b5e20"/><circle cx="144" cy="48" r="2" fill="#1b5e20"/><circle cx="176" cy="48" r="2" fill="#1b5e20"/><circle cx="208" cy="48" r="2" fill="#1b5e20"/><circle cx="240" cy="48" r="2" fill="#1b5e20"/><circle cx="272" cy="48" r="2" fill="#1b5e20"/><circle cx="304" cy="48" r="2" fill="#1b5e20"/><circle cx="336" cy="48" r="2" fill="#1b5e20"/><circle cx="16" cy="80" r="2" fill="#1b5e20"/><circle cx="48" cy="80" r="2" fill="#1b5e20"/><circle cx="80" cy="80" r="2" fill="#1b5e20"/><circle cx="112" cy="80" r="2" fill="#1b5e20"/><circle cx="144" cy="80" r="2" fill="#1b5e20"/><circle cx="176" cy="80" r="2" fill="#1b5e20"/><circle cx="208" cy="80" r="2" fill="#1b5e20"/><circle cx="240" cy="80" r="2" fill="#1b5e20"/><circle cx="272" cy="80" r="2" fill="#1b5e20"/><circle cx="304" cy="80" r="2" fill="#1b5e20"/><circle cx="336" cy="80" r="2" fill="#1b5e20"/><circle cx="16" cy="112" r="2" fill="#1b5e20"/><circle cx="48" cy="112" r="2" fill="#1b5e20"/><circle cx="80" cy="112" r="2" fill="#1b5e20"/><circle cx="112" cy="112" r="2" fill="#1b5e20"/><circle cx="144" cy="112" r="2" fill="#1b5e20"/><circle cx="176" cy="112" r="2" fill="#1b5e20"/><circle cx="208" cy="112" r="2" fill="#1b5e20"/><circle cx="240" cy="112" r="2" fill="#1b5e20"/><circle cx="272" cy="112" r="2" fill="#1b5e20"/><circle cx="304" cy="112" r="2" fill="#1b5e20"/><circle cx="336" cy="112" r="2" fill="#1b5e20"/><circle cx="16" cy="144" r="2" fill="#1b5e20"/><circle cx="48" cy="144" r="2" fill="#1b5e20"/><circle cx="80" cy="144" r="2" fill="#1b5e20"/><circle cx="112" cy="144" r="2" fill="#1b5e20"/><circle cx="144" cy="144" r="2" fill="#1b5e20"/><circle cx="176" cy="144" r="2" fill="#1b5e20"/><circle cx="208" cy="144" r="2" fill="#1b5e20"/><circle cx="240" cy="144" r="2" fill="#1b5e20"/><circle cx="272" cy="144" r="2" fill="#1b5e20"/><circle cx="304" cy="144" r="2" fill="#1b5e20"/><circle cx="336" cy="144" r="2" fill="#1b5e20"/><circle cx="16" cy="176" r="2" fill="#1b5e20"/><circle cx="48" cy="176" r="2" fill="#1b5e20"/><circle cx="80" cy="176" r="2" fill="#1b5e20"/><circle cx="112" cy="176" r="2" fill="#1b5e20"/><circle cx="144" cy="176" r="2" fill="#1b5e20"/><circle cx="176" cy="176" r="2" fill="#1b5e20"/><circle cx="208" cy="176" r="2" fill="#1b5e20"/><circle cx="240" cy="176" r="2" fill="#1b5e20"/><circle cx="272" cy="176" r="2" fill="#1b5e20"/><circle cx="304" cy="176" r="2" fill="#1b5e20"/><circle cx="336" cy="176" r="2" fill="#1b5e20"/><circle cx="16" cy="208" r="2" fill="#1b5e20"/><circle cx="48" cy="208" r="2" fill="#1b5e20"/><circle cx="80" cy="208" r="2" fill="#1b5e20"/><circle cx="112" cy="208" r="2" fill="#1b5e20"/><circle cx="144" cy="208" r="2" fill="#1b5e20"/><circle cx="176" cy="208" r="2" fill="#1b5e20"/><circle cx="208" cy="208" r="2" fill="#1b5e20"/><circle cx="240" cy="208" r="2" fill="#1b5e20"/><circle cx="272" cy="208" r="2" fill="#1b5e20"/><circle cx="304" cy="208" r="2" fill="#1b5e20"/><circle cx="336" cy="208" r="2" fill="#1b5e20"/><circle cx="16" cy="240" r="2" fill="#1b5e20"/><circle cx="48" cy="240" r="2" fill="#1b5e20"/><circle cx="80" cy="240" r="2" fill="#1b5e20"/><circle cx="112" cy="240" r="2" fill="#1b5e20"/><circle cx="144" cy="240" r="2" fill="#1b5e20"/><circle cx="176" cy="240" r="2" fill="#1b5e20"/><circle cx="208" cy="240" r="2" fill="#1b5e20"/><circle cx="240" cy="240" r="2" fill="#1b5e20"/><circle cx="272" cy="240" r="2" fill="#1b5e20"/><circle cx="304" cy="240" r="2" fill="#1b5e20"/><circle cx="336" cy="240" r="2" fill="#1b5e20"/><circle cx="16" cy="272" r="2" fill="#1b5e20"/><circle cx="48" cy="272" r="2" fill="#1b5e20"/><circle cx="80" cy="272" r="2" fill="#1b5e20"/><circle cx="112" cy="272" r="2" fill="#1b5e20"/><circle cx="144" cy="272" r="2" fill="#1b5e20"/><circle cx="176" cy="272" r="2" fill="#1b5e20"/><circle cx="208" cy="272" r="2" fill="#1b5e20"/><circle cx="240" cy="272" r="2" fill="#1b5e20"/><circle cx="272" cy="272" r="2" fill="#1b5e20"/><circle cx="304" cy="272" r="2" fill="#1b5e20"/><circle cx="336" cy="272" r="2" fill="#1b5e20"/><circle cx="16" cy="304" r="2" fill="#1b5e20"/><circle cx="48" cy="304" r="2" fill="#1b5e20"/><circle cx="80" cy="304" r="2" fill="#1b5e20"/><circle cx="112" cy="304" r="2" fill="#1b5e20"/><circle cx="144" cy="304" r="2" fill="#1b5e20"/><circle cx="176" cy="304" r="2" fill="#1b5e20"/><circle cx="208" cy="304" r="2" fill="#1b5e20"/><circle cx="240" cy="304" r="2" fill="#1b5e20"/><circle cx="272" cy="304" r="2" fill="#1b5e20"/><circle cx="304" cy="304" r="2" fill="#1b5e20"/><circle cx="336" cy="304" r="2" fill="#1b5e20"/><circle cx="16" cy="336" r="2" fill="#1b5e20"/><circle cx="48" cy="336" r="2" fill="#1b5e20"/><circle cx="80" cy="336" r="2" fill="#1b5e20"/><circle cx="112" cy="336" r="2" fill="#1b5e20"/><circle cx="144" cy="336" r="2" fill="#1b5e20"/><circle cx="176" cy="336" r="2" fill="#1b5e20"/><circle cx="208" cy="336" r="2" fill="#1b5e20"/><circle cx="240" cy="336" r="2" fill="#1b5e20"/><circle cx="272" cy="336" r="2" fill="#1b5e20"/><circle cx="304" cy="336" r="2" fill="#1b5e20"/><circle cx="336" cy="336" r="2" fill="#1b5e20"/></svg>