<svg xmlns="http://www.w3.org/2000/svg" viewBox="0 0 384 384" role="img" aria-labelledby="t d"><title id="t">Kolavatar eb22972dd31f1d79</title><desc id="d">11x11 sikku kolam, symmetry 2, palette margazhi-classic. Kolavatar is built on the South Indian sikku kolam tradition.
Cultural and ethnographic context: Sahapedia (sahapedia.org/kolam-floor-art-of-tamil-nadu).
Algorithmic foundation: Siromoney, Siromoney, and Krithivasan, &#34;Array Grammars and Kolam,&#34;
Computer Graphics and Image Processing 3 (1974): 63-82.
Symmetry classification: Venkatraman Gopalan, &#34;Symmetry Classification and Enumeration of
Square-Tile Sikku Kolams,&#34; Journal of Mathematics and the Arts (2024); arXiv:2304.14134.
Kolavatar is a respectful, non-commercial homage; no part of this package, the
kolavatar-ts SDK, or any derived work may strip or substitute this attribution.</desc><rect width="100%" height="100%" fill="#fdfdfa"/><path d="M64 16A16 16 0 0 1 48 32A16 16 0 0 1 64 48A16 16 0 0 1 80 32A16 16 0 0 1 64 16" stroke="#5b0f00" stroke-width="4" stroke-linecap="round" stroke-linejoin="round" fill="none"/><path d="M160 16A16 16 0 0 1 144 32A16 16 0 0 1 160 48A16 16 0 0 1 176 32A16 16 0 0 1 160 16" stroke="#5b0f00" stroke-width="4" stroke-linecap="round" stroke-linejoin="round" fill="none"/><path d="M320 16A16 16 0 0 1 304 32A16 16 0 0 1 320 48A16 16 0 0 1 336 32A16 16 0 0 1 320 16" stroke="#5b0f00" stroke-width="4" stroke-linecap="round" stroke-linejoin="round" fill="none"/><path d="M256 48A16 16 0 0 1 240 64A16 16 0 0 1 256 80A16 16 0 0 1 272 64A16 16 0 0 1 256 48" stroke="#5b0f00" stroke-width="4" stroke-linecap="round" stroke-linejoin="round" fill="none"/><path d="M64 80A16 16 0 0 1 48 96A16 16 0 0 1 64 112A16 16 0 0 1 80 96A16 16 0 0 1 64 80" stroke="#5b0f00" stroke-width="4" stroke-linecap="round" stroke-linejoin="round" fill="none"/><path d="M128 80A16 16 0 0 1 112 96A16 16 0 0 1 128 112A16 16 0 0 1 144 96A16 16 0 0 1 128 80" stroke="#5b0f00" stroke-width="4" stroke-linecap="round" stroke-linejoin="round" fill="none"/><path d="M320 80A16 16 0 0 1 304 96A16 16 0 0 1 320 112A16 16 0 0 1 336 96A16 16 0 0 1 320 80" stroke="#5b0f00" stroke-width="4" stroke-linecap="round" stroke-linejoin="round" fill="none"/><path d="M192 112A16 16 0 0 1 176 128A16 16 0 0 1 192 144A16 16 0 0 1 208 128A16 16 0 0 1 192 112" stroke="#5b0f00" stroke-width="4" stroke-linecap="round" stroke-linejoin="round" fill="none"/><path d="M256 112A16 16 0 0 1 240 128A16 16 0 0 1 256 144A16 16 0 0 1 272 128A16 16 0 0 1 256 112" stroke="#5b0f00" stroke-width="4" stroke-linecap="round" stroke-linejoin="round" fill="none"/><path d="M32 144A16 16 0 0 1 16 160A16 16 0 0 1 32 176A16 16 0 0 1 48 160A16 16 0 0 1 32 144" stroke="#5b0f00" stroke-width="4" stroke-linecap="round" stroke-linejoin="round" fill="none"/><path d="M128 144A16 16 0 0 1 112 160A16 16 0 0 1 128 176A16 16 0 0 1 144 160A16 16 0 0 1 128 144" stroke="#5b0f00" stroke-width="4" stroke-linecap="round" stroke-linejoin="round" fill="none"/><path d="M224 176A16 16 0 0 1 208 192A16 16 0 0 1 224 208A16 16 0 0 1 240 192A16 16 0 0 1 224 176" stroke="#5b0f00" stroke-width="4" stroke-linecap="round" stroke-linejoin="round" fill="none"/><path d="M320 176A16 16 0 0 1 304 192A16 16 0 0 1 320 208A16 16 0 0 1 336 192A16 16 0 0 1 320 176" stroke="#5b0f00" stroke-width="4" stroke-linecap="round" stroke-linejoin="round" fill="none"/><path d="M96 208A16 16 0 0 1 80 224A16 16 0 0 1 96 240A16 16 0 0 1 112 224A16 16 0 0 1 96 208" stroke="#5b0f00" stroke-width="4" stroke-linecap="round" stroke-linejoin="round" fill="none"/><path d="M160 208A16 16 0 0 1 144 224A16 16 0 0 1 160 240A16 16 0 0 1 176 224A16 16 0 0 1 160 208" stroke="#5b0f00" stroke-width="4" stroke-linecap="round" stroke-linejoin="round" fill="none"/><path d="M32 240A16 16 0 0 1 16 256A16 16 0 0 1 32 272A16 16 0 0 1 48 256A16 16 0 0 1 32 240" stroke="#5b0f00" stroke-width="4" stroke-linecap="round" stroke-linejoin="round" fill="none"/><path d="M224 240A16 16 0 0 1 208 256A16 16 0 0 1 224 272A16 16 0 0 1 240 256A16 16 0 0 1 224 240" stroke="#5b0f00" stroke-width="4" stroke-linecap="round" stroke-linejoin="round" fill="none"/><path d="M288 240A16 16 0 0 1 272 256A16 16 0 0 1 288 272A16 16 0 0 1 304 256A16 16 0 0 1 288 240" stroke="#5b0f00" stroke-width="4" stroke-linecap="round" stroke-linejoin="round" fill="none"/><path d="M96 272A16 16 0 0 1 80 288A16 16 0 0 1 96 304A16 16 0 0 1 112 288A16 16 0 0 1 96 272" stroke="#5b0f00" stroke-width="4" stroke-linecap="round" stroke-linejoin="round" fill="none"/><path d="M32 304A16 16 0 0 1 16 320A16 16 0 0 1 32 336A16 16 0 0 1 48 320A16 16 0 0 1 32 304" stroke="#5b0f00" stroke-width="4" stroke-linecap="round" stroke-linejoin="round" fill="none"/><path d="M192 304A16 16 0 0 1 176 320A16 16 0 0 1 192 336A16 16 0 0 1 208 320A16 16 0 0 1 192 304" stroke="#5b0f00" stroke-width="4" stroke-linecap="round" stroke-linejoin="round" fill="none"/><path d="M288 304A16 16 0 0 1 272 320A16 16 0 0 1 288 336A16 16 0 0 1 304 320A16 16 0 0 1 288 304" stroke="#5b0f00" stroke-width="4" stroke-linecap="round" stroke-linejoin="round" fill="none"/><circle cx="16" cy="16" r="2" fill="#5b0f00"/><circle cx="48" cy="16" r="2" fill="#5b0f00"/><circle cx="80" cy="16" r="2" fill="#5b0f00"/><circle cx="112" cy="16" r="2" fill="#5b0f00"/><circle cx="144" cy="16" r="2" fill="#5b0f00"/><circle cx="176" cy="16" r="2" fill="#5b0f00"/><circle cx="208" cy="16" r="2" fill="#5b0f00"/><circle cx="240" cy="16" r="2" fill="#5b0f00"/><circle cx="272" cy="16" r="2" fill="#5b0f00"/><circle cx="304" cy="16" r="2" fill="#5b0f00"/><circle cx="336" cy="16" r="2" fill="#5b0f00"/><circle cx="16" cy="48" r="2" fill="#5b0f00"/><circle cx="48" cy="48" r="2" fill="#5b0f00"/><circle cx="80" cy="48" r="2" fill="#5b0f00"/><circle cx="112" cy="48" r="2" fill="#5b0f00"/><circle cx="144" cy="48" r="2" fill="#5b0f00"/><circle cx="176" cy="48" r="2" fill="#5b0f00"/><circle cx="208" cy="48" r="2" fill="#5b0f00"/><circle cx="240" cy="48" r="2" fill="#5b0f00"/><circle cx="272" cy="48" r="2" fill="#5b0f00"/><circle cx="304" cy="48" r="2" fill="#5b0f00"/><circle cx="336" cy="48" r="2" fill="#5b0f00"/><circle cx="16" cy="80" r="2" fill="#5b0f00"/><circle cx="48" cy="80" r="2" fill="#5b0f00"/><circle cx="80" cy="80" r="2" fill="#5b0f00"/><circle cx="112" cy="80" r="2" fill="#5b0f00"/><circle cx="144" cy="80" r="2" fill="#5b0f00"/><circle cx="176" cy="80" r="2" fill="#5b0f00"/><circle cx="208" cy="80" r="2" fill="#5b0f00"/><circle cx="240" cy="80" r="2" fill="#5b0f00"/><circle cx="272" cy="80" r="2" fill="#5b0f00"/><circle cx="304" cy="80" r="2" fill="#5b0f00"/><circle cx="336" cy="80" r="2" fill="#5b0f00"/><circle cx="16" cy="112" r="2" fill="#5b0f00"/><circle cx="48" cy="112" r="2" fill="#5b0f00"/><circle cx="80" cy="112" r="2" fill="#5b0f00"/><circle cx="112" cy="112" r="2" fill="#5b0f00"/><circle cx="144" cy="112" r="2" fill="#5b0f00"/><circle cx="176" cy="112" r="2" fill="#5b0f00"/><circle cx="208" cy="112" r="2" fill="#5b0f00"/><circle cx="240" cy="112" r="2" fill="#5b0f00"/><circle cx="272" cy="112" r="2" fill="#5b0f00"/><circle cx="304" cy="112" r="2" fill="#5b0f00"/><circle cx="336" cy="112" r="2" fill="#5b0f00"/><circle cx="16" cy="144" r="2" fill="#5b0f00"/><circle cx="48" cy="144" r="2" fill="#5b0f00"/><circle cx="80" cy="144" r="2" fill="#5b0f00"/><circle cx="112" cy="144" r="2" fill="#5b0f00"/><circle cx="144" cy="144" r="2" fill="#5b0f00"/><circle cx="176" cy="144" r="2" fill="#5b0f00"/><circle cx="208" cy="144" r="2" fill="#5b0f00"/><circle cx="240" cy="144" r="2" fill="#5b0f00"/><circle cx="272" cy="144" r="2" fill="#5b0f00"/><circle cx="304" cy="144" r="2" fill="#5b0f00"/><circle cx="336" cy="144" r="2" fill="#5b0f00"/><circle cx="16" cy="176" r="2" fill="#5b0f00"/><circle cx="48" cy="176" r="2" fill="#5b0f00"/><circle cx="80" cy="176" r="2" fill="#5b0f00"/><circle cx="112" cy="176" r="2" fill="#5b0f00"/><circle cx="144" cy="176" r="2" fill="#5b0f00"/><circle cx="176" cy="176" r="2" fill="#5b0f00"/><circle cx="208" cy="176" r="2" fill="#5b0f00"/><circle cx="240" cy="176" r="2" fill="#5b0f00"/><circle cx="272" cy="176" r="2" fill="#5b0f00"/><circle cx="304" cy="176" r="2" fill="#5b0f00"/><circle cx="336" cy="176" r="2" fill="#5b0f00"/><circle cx="16" cy="208" r="2" fill="#5b0f00"/><circle cx="48" cy="208" r="2" fill="#5b0f00"/><circle cx="80" cy="208" r="2" fill="#5b0f00"/><circle cx="112" cy="208" r="2" fill="#5b0f00"/><circle cx="144" cy="208" r="2" fill="#5b0f00"/><circle cx="176" cy="208" r="2" fill="#5b0f00"/><circle cx="208" cy="208" r="2" fill="#5b0f00"/><circle cx="240" cy="208" r="2" fill="#5b0f00"/><circle cx="272" cy="208" r="2" fill="#5b0f00"/><circle cx="304" cy="208" r="2" fill="#5b0f00"/><circle cx="336" cy="208" r="2" fill="#5b0f00"/><circle cx="16" cy="240" r="2" fill="#5b0f00"/><circle cx="48" cy="240" r="2" fill="#5b0f00"/><circle cx="80" cy="240" r="2" fill="#5b0f00"/><circle cx="112" cy="240" r="2" fill="#5b0f00"/><circle cx="144" cy="240" r="2" fill="#5b0f00"/><circle cx="176" cy="240" r="2" fill="#5b0f00"/><circle cx="208" cy="240" r="2" fill="#5b0f00"/><circle cx="240" cy="240" r="2" fill="#5b0f00"/><circle cx="272" cy="240" r="2" fill="#5b0f00"/><circle cx="304" cy="240" r="2" fill="#5b0f00"/><circle cx="336" cy="240" r="2" fill="#5b0f00"/><circle cx="16" cy="272" r="2" fill="#5b0f00"/><circle cx="48" cy="272" r="2" fill="#5b0f00"/><circle cx="80" cy="272" r="2" fill="#5b0f00"/><circle cx="112" cy="272" r="2" fill="#5b0f00"/><circle cx="144" cy="272" r="2" fill="#5b0f00"/><circle cx="176" cy="272" r="2" fill="#5b0f00"/><circle cx="208" cy="272" r="2" fill="#5b0f00"/><circle cx="240" cy="272" r="2" fill="#5b0f00"/><circle cx="272" cy="272" r="2" fill="#5b0f00"/><circle cx="304" cy="272" r="2" fill="#5b0f00"/><circle cx="336" cy="272" r="2" fill="#5b0f00"/><circle cx="16" cy="304" r="2" fill="#5b0f00"/><circle cx="48" cy="304" r="2" fill="#5b0f00"/><circle cx="80" cy="304" r="2" fill="#5b0f00"/><circle cx="112" cy="304" r="2" fill="#5b0f00"/><circle cx="144" cy="304" r="2" fill="#5b0f00"/><circle cx="176" cy="304" r="2" fill="#5b0f00"/><circle cx="208" cy="304" r="2" fill="#5b0f00"/><circle cx="240" cy="304" r="2" fill="#5b0f00"/><circle cx="272" cy="304" r="2" fill="#5b0f00"/><circle cx="304" cy="304" r="2" fill="#5b0f00"/><circle cx="336" cy="304" r="2" fill="#5b0f00"/><circle cx="16" cy="336" r="2" fill="#5b0f00"/><circle cx="48" cy="336" r="2" fill="#5b0f00"/><circle cx="80" cy="336" r="2" fill="#5b0f00"/><circle cx="112" cy="336" r="2" fill="#5b0f00"/><circle cx="144" cy="336" r="2" fill="#5b0f00"/><circle cx="176" cy="336" r="2" fill="#5b0f00"/><circle cx="208" cy="336" r="2" fill="#5b0f00"/><circle cx="240" cy="336" r="2" fill="#5b0f00"/><circle cx="272" cy="336" r="2" fill="#5b0f00"/><circle cx="304" cy="336" r="2" fill="#5b0f00"/><circle cx="336" cy="336" r="2" fill="#5b0f00"/></svg>