<svg xmlns="http://www.w3.org/2000/svg" viewBox="0 0 384 384" role="img" aria-labelledby="t d"><title id="t">Kolavatar 61f83710809d895c</title><desc id="d">11x11 sikku kolam, symmetry 2, palette kanchipuram-silk. Kolavatar is built on the South Indian sikku kolam tradition.
Cultural and ethnographic context: Sahapedia (sahapedia.org/kolam-floor-art-of-tamil-nadu).
Algorithmic foundation: Siromoney, Siromoney, and Krithivasan, &#34;Array Grammars and Kolam,&#34;
Computer Graphics and Image Processing 3 (1974): 63-82.
Symmetry classification: Venkatraman Gopalan, &#34;Symmetry Classification and Enumeration of
Square-Tile Sikku Kolams,&#34; Journal of Mathematics and the Arts (2024); arXiv:2304.14134.
Kolavatar is a respectful, non-commercial homage; no part of this package, the
kolavatar-ts SDK, or any derived work may strip or substitute this attribution.</desc><rect width="100%" height="100%" fill="#fff8e1"/><path d="M128 16A16 16 0 0 1 112 32A16 16 0 0 1 128 48A16 16 0 0 1 144 32A16 16 0 0 1 128 16" stroke="#7b1fa2" stroke-width="4" stroke-linecap="round" stroke-linejoin="round" fill="none"/><path d="M288 16A16 16 0 0 1 272 32A16 16 0 0 1 288 48A16 16 0 0 1 304 32A16 16 0 0 1 288 16" stroke="#7b1fa2" stroke-width="4" stroke-linecap="round" stroke-linejoin="round" fill="none"/><path d="M64 48A16 16 0 0 1 48 64A16 16 0 0 1 64 80A16 16 0 0 1 80 64A16 16 0 0 1 64 48" stroke="#7b1fa2" stroke-width="4" stroke-linecap="round" stroke-linejoin="round" fill="none"/><path d="M224 48A16 16 0 0 1 208 64A16 16 0 0 1 224 80A16 16 0 0 1 240 64A16 16 0 0 1 224 48" stroke="#7b1fa2" stroke-width="4" stroke-linecap="round" stroke-linejoin="round" fill="none"/><path d="M128 80A16 16 0 0 1 112 96A16 16 0 0 1 128 112A16 16 0 0 1 144 96A16 16 0 0 1 128 80" stroke="#7b1fa2" stroke-width="4" stroke-linecap="round" stroke-linejoin="round" fill="none"/><path d="M288 80A16 16 0 0 1 272 96A16 16 0 0 1 288 112A16 16 0 0 1 304 96A16 16 0 0 1 288 80" stroke="#7b1fa2" stroke-width="4" stroke-linecap="round" stroke-linejoin="round" fill="none"/><path d="M224 112A16 16 0 0 1 208 128A16 16 0 0 1 224 144A16 16 0 0 1 240 128A16 16 0 0 1 224 112" stroke="#7b1fa2" stroke-width="4" stroke-linecap="round" stroke-linejoin="round" fill="none"/><path d="M64 144A16 16 0 0 1 48 160A16 16 0 0 1 64 176A16 16 0 0 1 80 160A16 16 0 0 1 64 144" stroke="#7b1fa2" stroke-width="4" stroke-linecap="round" stroke-linejoin="round" fill="none"/><path d="M160 144A16 16 0 0 1 144 160A16 16 0 0 1 160 176A16 16 0 0 0 176 192A16 16 0 0 1 192 208A16 16 0 0 1 208 192A16 16 0 0 1 192 176A16 16 0 0 0 176 160A16 16 0 0 1 160 144" stroke="#7b1fa2" stroke-width="4" stroke-linecap="round" stroke-linejoin="round" fill="none"/><path d="M288 176A16 16 0 0 1 272 192A16 16 0 0 1 288 208A16 16 0 0 1 304 192A16 16 0 0 1 288 176" stroke="#7b1fa2" stroke-width="4" stroke-linecap="round" stroke-linejoin="round" fill="none"/><path d="M128 208A16 16 0 0 1 112 224A16 16 0 0 1 128 240A16 16 0 0 1 144 224A16 16 0 0 1 128 208" stroke="#7b1fa2" stroke-width="4" stroke-linecap="round" stroke-linejoin="round" fill="none"/><path d="M64 240A16 16 0 0 1 48 256A16 16 0 0 1 64 272A16 16 0 0 1 80 256A16 16 0 0 1 64 240" stroke="#7b1fa2" stroke-width="4" stroke-linecap="round" stroke-linejoin="round" fill="none"/><path d="M224 240A16 16 0 0 1 208 256A16 16 0 0 1 224 272A16 16 0 0 1 240 256A16 16 0 0 1 224 240" stroke="#7b1fa2" stroke-width="4" stroke-linecap="round" stroke-linejoin="round" fill="none"/><path d="M128 272A16 16 0 0 1 112 288A16 16 0 0 1 128 304A16 16 0 0 1 144 288A16 16 0 0 1 128 272" stroke="#7b1fa2" stroke-width="4" stroke-linecap="round" stroke-linejoin="round" fill="none"/><path d="M288 272A16 16 0 0 1 272 288A16 16 0 0 1 288 304A16 16 0 0 1 304 288A16 16 0 0 1 288 272" stroke="#7b1fa2" stroke-width="4" stroke-linecap="round" stroke-linejoin="round" fill="none"/><path d="M64 304A16 16 0 0 1 48 320A16 16 0 0 1 64 336A16 16 0 0 1 80 320A16 16 0 0 1 64 304" stroke="#7b1fa2" stroke-width="4" stroke-linecap="round" stroke-linejoin="round" fill="none"/><path d="M224 304A16 16 0 0 1 208 320A16 16 0 0 1 224 336A16 16 0 0 1 240 320A16 16 0 0 1 224 304" stroke="#7b1fa2" stroke-width="4" stroke-linecap="round" stroke-linejoin="round" fill="none"/><circle cx="16" cy="16" r="2" fill="#7b1fa2"/><circle cx="48" cy="16" r="2" fill="#7b1fa2"/><circle cx="80" cy="16" r="2" fill="#7b1fa2"/><circle cx="112" cy="16" r="2" fill="#7b1fa2"/><circle cx="144" cy="16" r="2" fill="#7b1fa2"/><circle cx="176" cy="16" r="2" fill="#7b1fa2"/><circle cx="208" cy="16" r="2" fill="#7b1fa2"/><circle cx="240" cy="16" r="2" fill="#7b1fa2"/><circle cx="272" cy="16" r="2" fill="#7b1fa2"/><circle cx="304" cy="16" r="2" fill="#7b1fa2"/><circle cx="336" cy="16" r="2" fill="#7b1fa2"/><circle cx="16" cy="48" r="2" fill="#7b1fa2"/><circle cx="48" cy="48" r="2" fill="#7b1fa2"/><circle cx="80" cy="48" r="2" fill="#7b1fa2"/><circle cx="112" cy="48" r="2" fill="#7b1fa2"/><circle cx="144" cy="48" r="2" fill="#7b1fa2"/><circle cx="176" cy="48" r="2" fill="#7b1fa2"/><circle cx="208" cy="48" r="2" fill="#7b1fa2"/><circle cx="240" cy="48" r="2" fill="#7b1fa2"/><circle cx="272" cy="48" r="2" fill="#7b1fa2"/><circle cx="304" cy="48" r="2" fill="#7b1fa2"/><circle cx="336" cy="48" r="2" fill="#7b1fa2"/><circle cx="16" cy="80" r="2" fill="#7b1fa2"/><circle cx="48" cy="80" r="2" fill="#7b1fa2"/><circle cx="80" cy="80" r="2" fill="#7b1fa2"/><circle cx="112" cy="80" r="2" fill="#7b1fa2"/><circle cx="144" cy="80" r="2" fill="#7b1fa2"/><circle cx="176" cy="80" r="2" fill="#7b1fa2"/><circle cx="208" cy="80" r="2" fill="#7b1fa2"/><circle cx="240" cy="80" r="2" fill="#7b1fa2"/><circle cx="272" cy="80" r="2" fill="#7b1fa2"/><circle cx="304" cy="80" r="2" fill="#7b1fa2"/><circle cx="336" cy="80" r="2" fill="#7b1fa2"/><circle cx="16" cy="112" r="2" fill="#7b1fa2"/><circle cx="48" cy="112" r="2" fill="#7b1fa2"/><circle cx="80" cy="112" r="2" fill="#7b1fa2"/><circle cx="112" cy="112" r="2" fill="#7b1fa2"/><circle cx="144" cy="112" r="2" fill="#7b1fa2"/><circle cx="176" cy="112" r="2" fill="#7b1fa2"/><circle cx="208" cy="112" r="2" fill="#7b1fa2"/><circle cx="240" cy="112" r="2" fill="#7b1fa2"/><circle cx="272" cy="112" r="2" fill="#7b1fa2"/><circle cx="304" cy="112" r="2" fill="#7b1fa2"/><circle cx="336" cy="112" r="2" fill="#7b1fa2"/><circle cx="16" cy="144" r="2" fill="#7b1fa2"/><circle cx="48" cy="144" r="2" fill="#7b1fa2"/><circle cx="80" cy="144" r="2" fill="#7b1fa2"/><circle cx="112" cy="144" r="2" fill="#7b1fa2"/><circle cx="144" cy="144" r="2" fill="#7b1fa2"/><circle cx="176" cy="144" r="2" fill="#7b1fa2"/><circle cx="208" cy="144" r="2" fill="#7b1fa2"/><circle cx="240" cy="144" r="2" fill="#7b1fa2"/><circle cx="272" cy="144" r="2" fill="#7b1fa2"/><circle cx="304" cy="144" r="2" fill="#7b1fa2"/><circle cx="336" cy="144" r="2" fill="#7b1fa2"/><circle cx="16" cy="176" r="2" fill="#7b1fa2"/><circle cx="48" cy="176" r="2" fill="#7b1fa2"/><circle cx="80" cy="176" r="2" fill="#7b1fa2"/><circle cx="112" cy="176" r="2" fill="#7b1fa2"/><circle cx="144" cy="176" r="2" fill="#7b1fa2"/><circle cx="176" cy="176" r="2" fill="#7b1fa2"/><circle cx="208" cy="176" r="2" fill="#7b1fa2"/><circle cx="240" cy="176" r="2" fill="#7b1fa2"/><circle cx="272" cy="176" r="2" fill="#7b1fa2"/><circle cx="304" cy="176" r="2" fill="#7b1fa2"/><circle cx="336" cy="176" r="2" fill="#7b1fa2"/><circle cx="16" cy="208" r="2" fill="#7b1fa2"/><circle cx="48" cy="208" r="2" fill="#7b1fa2"/><circle cx="80" cy="208" r="2" fill="#7b1fa2"/><circle cx="112" cy="208" r="2" fill="#7b1fa2"/><circle cx="144" cy="208" r="2" fill="#7b1fa2"/><circle cx="176" cy="208" r="2" fill="#7b1fa2"/><circle cx="208" cy="208" r="2" fill="#7b1fa2"/><circle cx="240" cy="208" r="2" fill="#7b1fa2"/><circle cx="272" cy="208" r="2" fill="#7b1fa2"/><circle cx="304" cy="208" r="2" fill="#7b1fa2"/><circle cx="336" cy="208" r="2" fill="#7b1fa2"/><circle cx="16" cy="240" r="2" fill="#7b1fa2"/><circle cx="48" cy="240" r="2" fill="#7b1fa2"/><circle cx="80" cy="240" r="2" fill="#7b1fa2"/><circle cx="112" cy="240" r="2" fill="#7b1fa2"/><circle cx="144" cy="240" r="2" fill="#7b1fa2"/><circle cx="176" cy="240" r="2" fill="#7b1fa2"/><circle cx="208" cy="240" r="2" fill="#7b1fa2"/><circle cx="240" cy="240" r="2" fill="#7b1fa2"/><circle cx="272" cy="240" r="2" fill="#7b1fa2"/><circle cx="304" cy="240" r="2" fill="#7b1fa2"/><circle cx="336" cy="240" r="2" fill="#7b1fa2"/><circle cx="16" cy="272" r="2" fill="#7b1fa2"/><circle cx="48" cy="272" r="2" fill="#7b1fa2"/><circle cx="80" cy="272" r="2" fill="#7b1fa2"/><circle cx="112" cy="272" r="2" fill="#7b1fa2"/><circle cx="144" cy="272" r="2" fill="#7b1fa2"/><circle cx="176" cy="272" r="2" fill="#7b1fa2"/><circle cx="208" cy="272" r="2" fill="#7b1fa2"/><circle cx="240" cy="272" r="2" fill="#7b1fa2"/><circle cx="272" cy="272" r="2" fill="#7b1fa2"/><circle cx="304" cy="272" r="2" fill="#7b1fa2"/><circle cx="336" cy="272" r="2" fill="#7b1fa2"/><circle cx="16" cy="304" r="2" fill="#7b1fa2"/><circle cx="48" cy="304" r="2" fill="#7b1fa2"/><circle cx="80" cy="304" r="2" fill="#7b1fa2"/><circle cx="112" cy="304" r="2" fill="#7b1fa2"/><circle cx="144" cy="304" r="2" fill="#7b1fa2"/><circle cx="176" cy="304" r="2" fill="#7b1fa2"/><circle cx="208" cy="304" r="2" fill="#7b1fa2"/><circle cx="240" cy="304" r="2" fill="#7b1fa2"/><circle cx="272" cy="304" r="2" fill="#7b1fa2"/><circle cx="304" cy="304" r="2" fill="#7b1fa2"/><circle cx="336" cy="304" r="2" fill="#7b1fa2"/><circle cx="16" cy="336" r="2" fill="#7b1fa2"/><circle cx="48" cy="336" r="2" fill="#7b1fa2"/><circle cx="80" cy="336" r="2" fill="#7b1fa2"/><circle cx="112" cy="336" r="2" fill="#7b1fa2"/><circle cx="144" cy="336" r="2" fill="#7b1fa2"/><circle cx="176" cy="336" r="2" fill="#7b1fa2"/><circle cx="208" cy="336" r="2" fill="#7b1fa2"/><circle cx="240" cy="336" r="2" fill="#7b1fa2"/><circle cx="272" cy="336" r="2" fill="#7b1fa2"/><circle cx="304" cy="336" r="2" fill="#7b1fa2"/><circle cx="336" cy="336" r="2" fill="#7b1fa2"/></svg>