<svg xmlns="http://www.w3.org/2000/svg" viewBox="0 0 384 384" role="img" aria-labelledby="t d"><title id="t">Kolavatar fedd66a91c5e2576</title><desc id="d">11x11 sikku kolam, symmetry 2m_dm_d, palette muggu-graphite. Kolavatar is built on the South Indian sikku kolam tradition.
Cultural and ethnographic context: Sahapedia (sahapedia.org/kolam-floor-art-of-tamil-nadu).
Algorithmic foundation: Siromoney, Siromoney, and Krithivasan, &#34;Array Grammars and Kolam,&#34;
Computer Graphics and Image Processing 3 (1974): 63-82.
Symmetry classification: Venkatraman Gopalan, &#34;Symmetry Classification and Enumeration of
Square-Tile Sikku Kolams,&#34; Journal of Mathematics and the Arts (2024); arXiv:2304.14134.
Kolavatar is a respectful, non-commercial homage; no part of this package, the
kolavatar-ts SDK, or any derived work may strip or substitute this attribution.</desc><rect width="100%" height="100%" fill="#fafafa"/><path d="M64 16A16 16 0 0 1 48 32A16 16 0 0 0 32 48A16 16 0 0 1 16 64A16 16 0 0 1 32 80A16 16 0 0 1 64 80A16 16 0 0 0 80 96A16 16 0 0 1 96 112A16 16 0 0 1 112 96A16 16 0 0 1 96 80A16 16 0 0 0 80 64A16 16 0 0 0 80 32A16 16 0 0 1 64 16" stroke="#212121" stroke-width="4" stroke-linecap="round" stroke-linejoin="round" fill="none"/><path d="M128 16A16 16 0 0 1 112 32A16 16 0 0 1 128 48A16 16 0 0 1 144 32A16 16 0 0 1 128 16" stroke="#212121" stroke-width="4" stroke-linecap="round" stroke-linejoin="round" fill="none"/><path d="M288 16A16 16 0 0 1 272 32A16 16 0 0 1 288 48A16 16 0 0 0 304 64A16 16 0 0 1 320 80A16 16 0 0 1 336 64A16 16 0 0 1 320 48A16 16 0 0 0 304 32A16 16 0 0 1 288 16" stroke="#212121" stroke-width="4" stroke-linecap="round" stroke-linejoin="round" fill="none"/><path d="M192 48A16 16 0 0 1 176 64A16 16 0 0 1 192 80A16 16 0 0 1 208 64A16 16 0 0 1 192 48" stroke="#212121" stroke-width="4" stroke-linecap="round" stroke-linejoin="round" fill="none"/><path d="M32 112A16 16 0 0 1 16 128A16 16 0 0 1 32 144A16 16 0 0 1 48 128A16 16 0 0 1 32 112" stroke="#212121" stroke-width="4" stroke-linecap="round" stroke-linejoin="round" fill="none"/><path d="M160 112A16 16 0 0 1 144 128A16 16 0 0 1 160 144A16 16 0 0 1 176 128A16 16 0 0 1 160 112" stroke="#212121" stroke-width="4" stroke-linecap="round" stroke-linejoin="round" fill="none"/><path d="M128 144A16 16 0 0 1 112 160A16 16 0 0 1 128 176A16 16 0 0 1 144 160A16 16 0 0 1 128 144" stroke="#212121" stroke-width="4" stroke-linecap="round" stroke-linejoin="round" fill="none"/><path d="M288 144A16 16 0 0 1 272 160A16 16 0 0 1 288 176A16 16 0 0 1 304 160A16 16 0 0 1 288 144" stroke="#212121" stroke-width="4" stroke-linecap="round" stroke-linejoin="round" fill="none"/><path d="M64 176A16 16 0 0 1 48 192A16 16 0 0 1 64 208A16 16 0 0 1 80 192A16 16 0 0 1 64 176" stroke="#212121" stroke-width="4" stroke-linecap="round" stroke-linejoin="round" fill="none"/><path d="M224 176A16 16 0 0 1 208 192A16 16 0 0 1 224 208A16 16 0 0 1 240 192A16 16 0 0 1 224 176" stroke="#212121" stroke-width="4" stroke-linecap="round" stroke-linejoin="round" fill="none"/><path d="M192 208A16 16 0 0 1 176 224A16 16 0 0 1 192 240A16 16 0 0 1 208 224A16 16 0 0 1 192 208" stroke="#212121" stroke-width="4" stroke-linecap="round" stroke-linejoin="round" fill="none"/><path d="M320 208A16 16 0 0 1 304 224A16 16 0 0 1 320 240A16 16 0 0 1 336 224A16 16 0 0 1 320 208" stroke="#212121" stroke-width="4" stroke-linecap="round" stroke-linejoin="round" fill="none"/><path d="M256 240A16 16 0 0 1 240 256A16 16 0 0 1 256 272A16 16 0 0 0 272 288A16 16 0 0 1 272 320A16 16 0 0 1 288 336A16 16 0 0 1 304 320A16 16 0 0 0 320 304A16 16 0 0 1 336 288A16 16 0 0 1 320 272A16 16 0 0 0 288 272A16 16 0 0 0 272 256A16 16 0 0 1 256 240" stroke="#212121" stroke-width="4" stroke-linecap="round" stroke-linejoin="round" fill="none"/><path d="M32 272A16 16 0 0 1 16 288A16 16 0 0 1 32 304A16 16 0 0 0 48 320A16 16 0 0 1 64 336A16 16 0 0 1 80 320A16 16 0 0 1 64 304A16 16 0 0 0 48 288A16 16 0 0 1 32 272" stroke="#212121" stroke-width="4" stroke-linecap="round" stroke-linejoin="round" fill="none"/><path d="M160 272A16 16 0 0 1 144 288A16 16 0 0 1 160 304A16 16 0 0 1 176 288A16 16 0 0 1 160 272" stroke="#212121" stroke-width="4" stroke-linecap="round" stroke-linejoin="round" fill="none"/><path d="M224 304A16 16 0 0 1 208 320A16 16 0 0 1 224 336A16 16 0 0 1 240 320A16 16 0 0 1 224 304" stroke="#212121" stroke-width="4" stroke-linecap="round" stroke-linejoin="round" fill="none"/><circle cx="16" cy="16" r="2" fill="#212121"/><circle cx="48" cy="16" r="2" fill="#212121"/><circle cx="80" cy="16" r="2" fill="#212121"/><circle cx="112" cy="16" r="2" fill="#212121"/><circle cx="144" cy="16" r="2" fill="#212121"/><circle cx="176" cy="16" r="2" fill="#212121"/><circle cx="208" cy="16" r="2" fill="#212121"/><circle cx="240" cy="16" r="2" fill="#212121"/><circle cx="272" cy="16" r="2" fill="#212121"/><circle cx="304" cy="16" r="2" fill="#212121"/><circle cx="336" cy="16" r="2" fill="#212121"/><circle cx="16" cy="48" r="2" fill="#212121"/><circle cx="48" cy="48" r="2" fill="#212121"/><circle cx="80" cy="48" r="2" fill="#212121"/><circle cx="112" cy="48" r="2" fill="#212121"/><circle cx="144" cy="48" r="2" fill="#212121"/><circle cx="176" cy="48" r="2" fill="#212121"/><circle cx="208" cy="48" r="2" fill="#212121"/><circle cx="240" cy="48" r="2" fill="#212121"/><circle cx="272" cy="48" r="2" fill="#212121"/><circle cx="304" cy="48" r="2" fill="#212121"/><circle cx="336" cy="48" r="2" fill="#212121"/><circle cx="16" cy="80" r="2" fill="#212121"/><circle cx="48" cy="80" r="2" fill="#212121"/><circle cx="80" cy="80" r="2" fill="#212121"/><circle cx="112" cy="80" r="2" fill="#212121"/><circle cx="144" cy="80" r="2" fill="#212121"/><circle cx="176" cy="80" r="2" fill="#212121"/><circle cx="208" cy="80" r="2" fill="#212121"/><circle cx="240" cy="80" r="2" fill="#212121"/><circle cx="272" cy="80" r="2" fill="#212121"/><circle cx="304" cy="80" r="2" fill="#212121"/><circle cx="336" cy="80" r="2" fill="#212121"/><circle cx="16" cy="112" r="2" fill="#212121"/><circle cx="48" cy="112" r="2" fill="#212121"/><circle cx="80" cy="112" r="2" fill="#212121"/><circle cx="112" cy="112" r="2" fill="#212121"/><circle cx="144" cy="112" r="2" fill="#212121"/><circle cx="176" cy="112" r="2" fill="#212121"/><circle cx="208" cy="112" r="2" fill="#212121"/><circle cx="240" cy="112" r="2" fill="#212121"/><circle cx="272" cy="112" r="2" fill="#212121"/><circle cx="304" cy="112" r="2" fill="#212121"/><circle cx="336" cy="112" r="2" fill="#212121"/><circle cx="16" cy="144" r="2" fill="#212121"/><circle cx="48" cy="144" r="2" fill="#212121"/><circle cx="80" cy="144" r="2" fill="#212121"/><circle cx="112" cy="144" r="2" fill="#212121"/><circle cx="144" cy="144" r="2" fill="#212121"/><circle cx="176" cy="144" r="2" fill="#212121"/><circle cx="208" cy="144" r="2" fill="#212121"/><circle cx="240" cy="144" r="2" fill="#212121"/><circle cx="272" cy="144" r="2" fill="#212121"/><circle cx="304" cy="144" r="2" fill="#212121"/><circle cx="336" cy="144" r="2" fill="#212121"/><circle cx="16" cy="176" r="2" fill="#212121"/><circle cx="48" cy="176" r="2" fill="#212121"/><circle cx="80" cy="176" r="2" fill="#212121"/><circle cx="112" cy="176" r="2" fill="#212121"/><circle cx="144" cy="176" r="2" fill="#212121"/><circle cx="176" cy="176" r="2" fill="#212121"/><circle cx="208" cy="176" r="2" fill="#212121"/><circle cx="240" cy="176" r="2" fill="#212121"/><circle cx="272" cy="176" r="2" fill="#212121"/><circle cx="304" cy="176" r="2" fill="#212121"/><circle cx="336" cy="176" r="2" fill="#212121"/><circle cx="16" cy="208" r="2" fill="#212121"/><circle cx="48" cy="208" r="2" fill="#212121"/><circle cx="80" cy="208" r="2" fill="#212121"/><circle cx="112" cy="208" r="2" fill="#212121"/><circle cx="144" cy="208" r="2" fill="#212121"/><circle cx="176" cy="208" r="2" fill="#212121"/><circle cx="208" cy="208" r="2" fill="#212121"/><circle cx="240" cy="208" r="2" fill="#212121"/><circle cx="272" cy="208" r="2" fill="#212121"/><circle cx="304" cy="208" r="2" fill="#212121"/><circle cx="336" cy="208" r="2" fill="#212121"/><circle cx="16" cy="240" r="2" fill="#212121"/><circle cx="48" cy="240" r="2" fill="#212121"/><circle cx="80" cy="240" r="2" fill="#212121"/><circle cx="112" cy="240" r="2" fill="#212121"/><circle cx="144" cy="240" r="2" fill="#212121"/><circle cx="176" cy="240" r="2" fill="#212121"/><circle cx="208" cy="240" r="2" fill="#212121"/><circle cx="240" cy="240" r="2" fill="#212121"/><circle cx="272" cy="240" r="2" fill="#212121"/><circle cx="304" cy="240" r="2" fill="#212121"/><circle cx="336" cy="240" r="2" fill="#212121"/><circle cx="16" cy="272" r="2" fill="#212121"/><circle cx="48" cy="272" r="2" fill="#212121"/><circle cx="80" cy="272" r="2" fill="#212121"/><circle cx="112" cy="272" r="2" fill="#212121"/><circle cx="144" cy="272" r="2" fill="#212121"/><circle cx="176" cy="272" r="2" fill="#212121"/><circle cx="208" cy="272" r="2" fill="#212121"/><circle cx="240" cy="272" r="2" fill="#212121"/><circle cx="272" cy="272" r="2" fill="#212121"/><circle cx="304" cy="272" r="2" fill="#212121"/><circle cx="336" cy="272" r="2" fill="#212121"/><circle cx="16" cy="304" r="2" fill="#212121"/><circle cx="48" cy="304" r="2" fill="#212121"/><circle cx="80" cy="304" r="2" fill="#212121"/><circle cx="112" cy="304" r="2" fill="#212121"/><circle cx="144" cy="304" r="2" fill="#212121"/><circle cx="176" cy="304" r="2" fill="#212121"/><circle cx="208" cy="304" r="2" fill="#212121"/><circle cx="240" cy="304" r="2" fill="#212121"/><circle cx="272" cy="304" r="2" fill="#212121"/><circle cx="304" cy="304" r="2" fill="#212121"/><circle cx="336" cy="304" r="2" fill="#212121"/><circle cx="16" cy="336" r="2" fill="#212121"/><circle cx="48" cy="336" r="2" fill="#212121"/><circle cx="80" cy="336" r="2" fill="#212121"/><circle cx="112" cy="336" r="2" fill="#212121"/><circle cx="144" cy="336" r="2" fill="#212121"/><circle cx="176" cy="336" r="2" fill="#212121"/><circle cx="208" cy="336" r="2" fill="#212121"/><circle cx="240" cy="336" r="2" fill="#212121"/><circle cx="272" cy="336" r="2" fill="#212121"/><circle cx="304" cy="336" r="2" fill="#212121"/><circle cx="336" cy="336" r="2" fill="#212121"/></svg>