<svg xmlns="http://www.w3.org/2000/svg" viewBox="0 0 384 384" role="img" aria-labelledby="t d"><title id="t">Kolavatar 755544a220b505c2</title><desc id="d">11x11 sikku kolam, symmetry m_d, palette test-bw. Kolavatar is built on the South Indian sikku kolam tradition.
Cultural and ethnographic context: Sahapedia (sahapedia.org/kolam-floor-art-of-tamil-nadu).
Algorithmic foundation: Siromoney, Siromoney, and Krithivasan, &#34;Array Grammars and Kolam,&#34;
Computer Graphics and Image Processing 3 (1974): 63-82.
Symmetry classification: Venkatraman Gopalan, &#34;Symmetry Classification and Enumeration of
Square-Tile Sikku Kolams,&#34; Journal of Mathematics and the Arts (2024); arXiv:2304.14134.
Kolavatar is a respectful, non-commercial homage; no part of this package, the
kolavatar-ts SDK, or any derived work may strip or substitute this attribution.</desc><rect width="100%" height="100%" fill="#000000"/><path d="M96 48A16 16 0 0 1 80 64A16 16 0 0 1 80 96A16 16 0 0 1 96 112A16 16 0 0 1 112 96A16 16 0 0 0 112 64A16 16 0 0 1 96 48" stroke="#ffffff" stroke-width="4" stroke-linecap="round" stroke-linejoin="round" fill="none"/><path d="M256 48A16 16 0 0 1 240 64A16 16 0 0 1 240 96A16 16 0 0 1 256 112A16 16 0 0 1 272 96A16 16 0 0 0 272 64A16 16 0 0 1 256 48" stroke="#ffffff" stroke-width="4" stroke-linecap="round" stroke-linejoin="round" fill="none"/><path d="M96 144A16 16 0 0 1 80 160A16 16 0 0 1 80 192A16 16 0 0 1 96 208A16 16 0 0 1 112 192A16 16 0 0 0 112 160A16 16 0 0 1 96 144" stroke="#ffffff" stroke-width="4" stroke-linecap="round" stroke-linejoin="round" fill="none"/><path d="M256 144A16 16 0 0 1 240 160A16 16 0 0 1 240 192A16 16 0 0 1 256 208A16 16 0 0 1 272 192A16 16 0 0 0 272 160A16 16 0 0 1 256 144" stroke="#ffffff" stroke-width="4" stroke-linecap="round" stroke-linejoin="round" fill="none"/><path d="M96 272A16 16 0 0 1 80 288A16 16 0 0 1 80 320A16 16 0 0 1 96 336A16 16 0 0 1 112 320A16 16 0 0 0 112 288A16 16 0 0 1 96 272" stroke="#ffffff" stroke-width="4" stroke-linecap="round" stroke-linejoin="round" fill="none"/><path d="M256 272A16 16 0 0 1 240 288A16 16 0 0 1 240 320A16 16 0 0 1 256 336A16 16 0 0 1 272 320A16 16 0 0 0 272 288A16 16 0 0 1 256 272" stroke="#ffffff" stroke-width="4" stroke-linecap="round" stroke-linejoin="round" fill="none"/><circle cx="16" cy="16" r="2" fill="#ffffff"/><circle cx="48" cy="16" r="2" fill="#ffffff"/><circle cx="80" cy="16" r="2" fill="#ffffff"/><circle cx="112" cy="16" r="2" fill="#ffffff"/><circle cx="144" cy="16" r="2" fill="#ffffff"/><circle cx="176" cy="16" r="2" fill="#ffffff"/><circle cx="208" cy="16" r="2" fill="#ffffff"/><circle cx="240" cy="16" r="2" fill="#ffffff"/><circle cx="272" cy="16" r="2" fill="#ffffff"/><circle cx="304" cy="16" r="2" fill="#ffffff"/><circle cx="336" cy="16" r="2" fill="#ffffff"/><circle cx="16" cy="48" r="2" fill="#ffffff"/><circle cx="48" cy="48" r="2" fill="#ffffff"/><circle cx="80" cy="48" r="2" fill="#ffffff"/><circle cx="112" cy="48" r="2" fill="#ffffff"/><circle cx="144" cy="48" r="2" fill="#ffffff"/><circle cx="176" cy="48" r="2" fill="#ffffff"/><circle cx="208" cy="48" r="2" fill="#ffffff"/><circle cx="240" cy="48" r="2" fill="#ffffff"/><circle cx="272" cy="48" r="2" fill="#ffffff"/><circle cx="304" cy="48" r="2" fill="#ffffff"/><circle cx="336" cy="48" r="2" fill="#ffffff"/><circle cx="16" cy="80" r="2" fill="#ffffff"/><circle cx="48" cy="80" r="2" fill="#ffffff"/><circle cx="80" cy="80" r="2" fill="#ffffff"/><circle cx="112" cy="80" r="2" fill="#ffffff"/><circle cx="144" cy="80" r="2" fill="#ffffff"/><circle cx="176" cy="80" r="2" fill="#ffffff"/><circle cx="208" cy="80" r="2" fill="#ffffff"/><circle cx="240" cy="80" r="2" fill="#ffffff"/><circle cx="272" cy="80" r="2" fill="#ffffff"/><circle cx="304" cy="80" r="2" fill="#ffffff"/><circle cx="336" cy="80" r="2" fill="#ffffff"/><circle cx="16" cy="112" r="2" fill="#ffffff"/><circle cx="48" cy="112" r="2" fill="#ffffff"/><circle cx="80" cy="112" r="2" fill="#ffffff"/><circle cx="112" cy="112" r="2" fill="#ffffff"/><circle cx="144" cy="112" r="2" fill="#ffffff"/><circle cx="176" cy="112" r="2" fill="#ffffff"/><circle cx="208" cy="112" r="2" fill="#ffffff"/><circle cx="240" cy="112" r="2" fill="#ffffff"/><circle cx="272" cy="112" r="2" fill="#ffffff"/><circle cx="304" cy="112" r="2" fill="#ffffff"/><circle cx="336" cy="112" r="2" fill="#ffffff"/><circle cx="16" cy="144" r="2" fill="#ffffff"/><circle cx="48" cy="144" r="2" fill="#ffffff"/><circle cx="80" cy="144" r="2" fill="#ffffff"/><circle cx="112" cy="144" r="2" fill="#ffffff"/><circle cx="144" cy="144" r="2" fill="#ffffff"/><circle cx="176" cy="144" r="2" fill="#ffffff"/><circle cx="208" cy="144" r="2" fill="#ffffff"/><circle cx="240" cy="144" r="2" fill="#ffffff"/><circle cx="272" cy="144" r="2" fill="#ffffff"/><circle cx="304" cy="144" r="2" fill="#ffffff"/><circle cx="336" cy="144" r="2" fill="#ffffff"/><circle cx="16" cy="176" r="2" fill="#ffffff"/><circle cx="48" cy="176" r="2" fill="#ffffff"/><circle cx="80" cy="176" r="2" fill="#ffffff"/><circle cx="112" cy="176" r="2" fill="#ffffff"/><circle cx="144" cy="176" r="2" fill="#ffffff"/><circle cx="176" cy="176" r="2" fill="#ffffff"/><circle cx="208" cy="176" r="2" fill="#ffffff"/><circle cx="240" cy="176" r="2" fill="#ffffff"/><circle cx="272" cy="176" r="2" fill="#ffffff"/><circle cx="304" cy="176" r="2" fill="#ffffff"/><circle cx="336" cy="176" r="2" fill="#ffffff"/><circle cx="16" cy="208" r="2" fill="#ffffff"/><circle cx="48" cy="208" r="2" fill="#ffffff"/><circle cx="80" cy="208" r="2" fill="#ffffff"/><circle cx="112" cy="208" r="2" fill="#ffffff"/><circle cx="144" cy="208" r="2" fill="#ffffff"/><circle cx="176" cy="208" r="2" fill="#ffffff"/><circle cx="208" cy="208" r="2" fill="#ffffff"/><circle cx="240" cy="208" r="2" fill="#ffffff"/><circle cx="272" cy="208" r="2" fill="#ffffff"/><circle cx="304" cy="208" r="2" fill="#ffffff"/><circle cx="336" cy="208" r="2" fill="#ffffff"/><circle cx="16" cy="240" r="2" fill="#ffffff"/><circle cx="48" cy="240" r="2" fill="#ffffff"/><circle cx="80" cy="240" r="2" fill="#ffffff"/><circle cx="112" cy="240" r="2" fill="#ffffff"/><circle cx="144" cy="240" r="2" fill="#ffffff"/><circle cx="176" cy="240" r="2" fill="#ffffff"/><circle cx="208" cy="240" r="2" fill="#ffffff"/><circle cx="240" cy="240" r="2" fill="#ffffff"/><circle cx="272" cy="240" r="2" fill="#ffffff"/><circle cx="304" cy="240" r="2" fill="#ffffff"/><circle cx="336" cy="240" r="2" fill="#ffffff"/><circle cx="16" cy="272" r="2" fill="#ffffff"/><circle cx="48" cy="272" r="2" fill="#ffffff"/><circle cx="80" cy="272" r="2" fill="#ffffff"/><circle cx="112" cy="272" r="2" fill="#ffffff"/><circle cx="144" cy="272" r="2" fill="#ffffff"/><circle cx="176" cy="272" r="2" fill="#ffffff"/><circle cx="208" cy="272" r="2" fill="#ffffff"/><circle cx="240" cy="272" r="2" fill="#ffffff"/><circle cx="272" cy="272" r="2" fill="#ffffff"/><circle cx="304" cy="272" r="2" fill="#ffffff"/><circle cx="336" cy="272" r="2" fill="#ffffff"/><circle cx="16" cy="304" r="2" fill="#ffffff"/><circle cx="48" cy="304" r="2" fill="#ffffff"/><circle cx="80" cy="304" r="2" fill="#ffffff"/><circle cx="112" cy="304" r="2" fill="#ffffff"/><circle cx="144" cy="304" r="2" fill="#ffffff"/><circle cx="176" cy="304" r="2" fill="#ffffff"/><circle cx="208" cy="304" r="2" fill="#ffffff"/><circle cx="240" cy="304" r="2" fill="#ffffff"/><circle cx="272" cy="304" r="2" fill="#ffffff"/><circle cx="304" cy="304" r="2" fill="#ffffff"/><circle cx="336" cy="304" r="2" fill="#ffffff"/><circle cx="16" cy="336" r="2" fill="#ffffff"/><circle cx="48" cy="336" r="2" fill="#ffffff"/><circle cx="80" cy="336" r="2" fill="#ffffff"/><circle cx="112" cy="336" r="2" fill="#ffffff"/><circle cx="144" cy="336" r="2" fill="#ffffff"/><circle cx="176" cy="336" r="2" fill="#ffffff"/><circle cx="208" cy="336" r="2" fill="#ffffff"/><circle cx="240" cy="336" r="2" fill="#ffffff"/><circle cx="272" cy="336" r="2" fill="#ffffff"/><circle cx="304" cy="336" r="2" fill="#ffffff"/><circle cx="336" cy="336" r="2" fill="#ffffff"/></svg>